<svg xmlns="http://www.w3.org/2000/svg" viewBox="0 0 960 540" role="img" aria-hidden="true"><rect width="960" height="540" fill="#171715"/><circle cx="514.0" cy="242.8" r="122.4" fill="#e4a43c"/><circle cx="357.6" cy="208.8" r="8.2" fill="#faf8f3"/><circle cx="357.6" cy="239.4" r="8.2" fill="#faf8f3"/><circle cx="357.6" cy="270.0" r="8.2" fill="#faf8f3"/><circle cx="357.6" cy="300.6" r="8.2" fill="#faf8f3"/><circle cx="357.6" cy="331.2" r="8.2" fill="#faf8f3"/><circle cx="357.6" cy="361.8" r="8.2" fill="#faf8f3"/><circle cx="357.6" cy="392.4" r="8.2" fill="#faf8f3"/><circle cx="388.2" cy="208.8" r="8.2" fill="#faf8f3"/><circle cx="388.2" cy="239.4" r="8.2" fill="#faf8f3"/><circle cx="388.2" cy="270.0" r="8.2" fill="#faf8f3"/><circle cx="388.2" cy="300.6" r="8.2" fill="#faf8f3"/><circle cx="388.2" cy="331.2" r="8.2" fill="#faf8f3"/><circle cx="388.2" cy="361.8" r="8.2" fill="#faf8f3"/><circle cx="388.2" cy="392.4" r="8.2" fill="#faf8f3"/><circle cx="418.8" cy="208.8" r="8.2" fill="#faf8f3"/><circle cx="418.8" cy="239.4" r="8.2" fill="#faf8f3"/><circle cx="418.8" cy="270.0" r="8.2" fill="#faf8f3"/><circle cx="418.8" cy="300.6" r="8.2" fill="#faf8f3"/><circle cx="418.8" cy="331.2" r="8.2" fill="#faf8f3"/><circle cx="418.8" cy="361.8" r="8.2" fill="#faf8f3"/><circle cx="418.8" cy="392.4" r="8.2" fill="#faf8f3"/><circle cx="449.4" cy="208.8" r="8.2" fill="#faf8f3"/><circle cx="449.4" cy="239.4" r="8.2" fill="#faf8f3"/><circle cx="449.4" cy="270.0" r="8.2" fill="#faf8f3"/><circle cx="449.4" cy="300.6" r="8.2" fill="#faf8f3"/><circle cx="449.4" cy="331.2" r="8.2" fill="#faf8f3"/><circle cx="449.4" cy="361.8" r="8.2" fill="#faf8f3"/><circle cx="449.4" cy="392.4" r="8.2" fill="#faf8f3"/><circle cx="480.0" cy="208.8" r="8.2" fill="#faf8f3"/><circle cx="480.0" cy="239.4" r="8.2" fill="#faf8f3"/><circle cx="480.0" cy="270.0" r="8.2" fill="#faf8f3"/><circle cx="480.0" cy="300.6" r="8.2" fill="#faf8f3"/><circle cx="480.0" cy="331.2" r="8.2" fill="#faf8f3"/><circle cx="480.0" cy="361.8" r="8.2" fill="#faf8f3"/><circle cx="480.0" cy="392.4" r="8.2" fill="#faf8f3"/><circle cx="510.6" cy="208.8" r="8.2" fill="#faf8f3"/><circle cx="510.6" cy="239.4" r="8.2" fill="#faf8f3"/><circle cx="510.6" cy="270.0" r="8.2" fill="#faf8f3"/><circle cx="510.6" cy="300.6" r="8.2" fill="#faf8f3"/><circle cx="510.6" cy="331.2" r="8.2" fill="#faf8f3"/><circle cx="510.6" cy="361.8" r="8.2" fill="#faf8f3"/><circle cx="510.6" cy="392.4" r="8.2" fill="#faf8f3"/><circle cx="541.2" cy="208.8" r="8.2" fill="#faf8f3"/><circle cx="541.2" cy="239.4" r="8.2" fill="#faf8f3"/><circle cx="541.2" cy="270.0" r="8.2" fill="#faf8f3"/><circle cx="541.2" cy="300.6" r="8.2" fill="#faf8f3"/><circle cx="541.2" cy="331.2" r="8.2" fill="#faf8f3"/><circle cx="541.2" cy="361.8" r="8.2" fill="#faf8f3"/><circle cx="541.2" cy="392.4" r="8.2" fill="#faf8f3"/></svg>
